<svg xmlns="http://www.w3.org/2000/svg" viewBox="0 0 1218.36 213.59"><defs><style>.cls-1{fill:#349a4b;}.cls-2{fill:#e1c83f;}</style></defs><g id="Layer_2" data-name="Layer 2"><g id="Layer_1-2" data-name="Layer 1"><path d="M58.63,92.06C39.3,92,26.49,105.65,26.44,126c0,20.64,13.16,34.32,32.63,34.36,13.8,0,22.53-6,29.09-16.21l17.12,15.44c-10.93,14.51-26.79,21.88-46.84,21.84C23.57,181.35-.07,158.92,0,125.65.07,92.66,23.51,70.91,58.53,71c17.58,0,32.39,5.44,43.26,17.23l-16,16.39C80.41,97,70.54,92.08,58.63,92.06Z"/><path d="M155.73,99.18c-26.13-.06-43.63,16.34-43.68,40.9s17.38,41.16,43.51,41.21c25.74.06,43.21-16.34,43.26-41S181.47,99.23,155.73,99.18Zm-.25,60.9c-10.75,0-17.86-8-17.84-19.94s7.17-19.9,17.93-19.88c10.6,0,17.68,8,17.66,20S166.09,160.11,155.48,160.08Z"/><path d="M284,180.1l-23.69,0-.42-8.28a29.82,29.82,0,0,1-22.54,9.69c-17.58,0-29.33-12.41-29.29-31.16l.11-49.55,24.7.06-.1,45.91c0,8.14,5.2,13.53,13.34,13.54s13.24-5.35,13.25-13.48l.1-45.92,24.7,0Z"/><path d="M350.6,99.6,349,122.26c-15.12,0-25.74,6.92-25.76,17.24l-.08,40.68-24.7-.05.16-79.19,23.83,0,.42,9.59C329.23,103.62,338.83,99.57,350.6,99.6Z"/><path d="M379.85,150.8l-4.79-1.46c-12.78-4-21.63-8.9-21.61-22,0-16.71,12.27-27.73,30.87-27.69,11.91,0,22.08,2.8,29.33,8.34L403.3,124a33.16,33.16,0,0,0-17.43-5c-4.36,0-7.26,1.59-7.27,4.49,0,3.2,3.77,4.81,8.7,6.42l4.65,1.46c13.36,4.1,22.94,10.07,22.91,24.46,0,15.69-13,26-32.17,25.94-11.62,0-21.93-3.24-29.47-9.94l9.18-14.95A41.2,41.2,0,0,0,383,162.44c4.07,0,6.84-1.73,6.84-4.64C389.87,154.31,386,152.71,379.85,150.8Z"/><path d="M502.81,139.72c.05-24-16.2-39.85-40.46-39.9-24.41,0-40.58,16.77-40.63,41.79-.05,24.26,16.62,40.27,41.61,40.32,15.41,0,28.08-6.92,34.93-17.2l-19.17-9.35a20.37,20.37,0,0,1-16,7.22c-9.46,0-13.8-4.95-15.23-13.12l54.35.12C502.5,146.85,502.81,143.07,502.81,139.72Zm-54.91-6.79c1.77-8.85,6.28-13.79,14.41-13.78s13.07,5,14.66,13.84Z"/><path d="M559,79.68l-46.08-.1-.21,101.21,25.59.06.06-27.83,19.15,0c24.3.05,40.31-15,40.36-37.56C597.92,94,582.39,79.73,559,79.68ZM556.12,132l-17.71,0,.07-31.23,17.7,0c9.31,0,15.4,6.26,15.38,15.56C571.54,125.78,566,132,556.12,132Z"/><path d="M658.78,100.73l-1.65,22.67c-15.11,0-25.73,6.92-25.75,17.24l-.08,40.68-24.7,0,.16-79.19,23.83,0,.41,9.59C637.41,104.76,647,100.71,658.78,100.73Z"/><path d="M702.08,100.83c-26.14-.06-43.63,16.31-43.68,40.87-.06,24.71,17.37,41.16,43.51,41.21,25.74.05,43.2-16.31,43.25-41C745.22,117.32,727.82,100.88,702.08,100.83Zm-.25,60.87c-10.76,0-17.87-8-17.84-19.95s7.17-19.89,17.92-19.87,17.69,8.05,17.66,20S712.43,161.72,701.83,161.7Z"/><path d="M803.65,101c-10.61,0-18.59,4-24,11.13l-.44-9.73-23.83,0-.23,111.15,24.71.05.08-41.12c5.37,6.72,13.22,10.63,23.52,10.65,20.93,0,37.83-16.63,37.88-41.31S824.59,101.08,803.65,101ZM798,161.9c-10.75,0-18-8-18-19.94s7.32-19.9,18.08-19.88c10.6,0,17.83,8,17.81,19.8C815.9,154,808.63,161.92,798,161.9Z"/><path d="M928.67,141.12c.05-24-16.17-39.86-40.43-39.91S847.66,118,847.61,143c-.05,24.26,16.62,40.28,41.61,40.33,15.41,0,28-6.89,34.9-17.21L905,156.75A20.35,20.35,0,0,1,889,164c-9.43,0-13.77-5-15.23-13.12l54.35.11A95.12,95.12,0,0,0,928.67,141.12Zm-54.91-6.79c1.77-8.88,6.28-13.8,14.44-13.78s13,5,14.63,13.84Z"/><rect x="894.43" y="112.97" width="113.34" height="24.7" transform="translate(823.8 1076.16) rotate(-89.88)"/><rect x="933.67" y="113.05" width="113.34" height="24.7" transform="translate(862.87 1115.47) rotate(-89.88)"/><path d="M1094.05,141.46c0-24-16.2-39.85-40.46-39.9S1013,118.33,1013,143.32c-.05,24.26,16.62,40.27,41.64,40.33,15.38,0,28.05-6.89,34.9-17.21l-19.17-9.35a20.36,20.36,0,0,1-16,7.25c-9.46,0-13.8-5-15.23-13.11l54.35.11C1093.73,148.56,1094,144.79,1094.05,141.46Zm-54.91-6.79c1.77-8.88,6.28-13.79,14.41-13.78,8.28,0,13.07,5,14.65,13.84Z"/><path d="M1156,101.77l-1.65,22.66c-15.11,0-25.73,6.93-25.75,17.24l-.09,40.69-24.7-.05.16-79.19,23.83,0,.42,9.59C1134.67,105.79,1144.27,101.75,1156,101.77Z"/><path class="cls-1" d="M1155,77.48l-51.19.75a1.32,1.32,0,0,1-1.2-1.91l4-8a22.41,22.41,0,0,1,21.77-12.26l24.19,1.88A23.35,23.35,0,0,0,1155,77.48Z"/><path class="cls-1" d="M1186.21,44.72a23.22,23.22,0,0,0-10.9-2.95L1198.22.67a1.32,1.32,0,0,1,2.25-.07l4.93,7.49a22.42,22.42,0,0,1-.26,25l-12,17.53A22.86,22.86,0,0,0,1186.21,44.72Z"/><path class="cls-1" d="M1217.1,123.23l-8.94.52a22.26,22.26,0,0,1-21.59-12.9l-10.7-22.38a23.26,23.26,0,0,0,17.37-9l24.93,41.73A1.32,1.32,0,0,1,1217.1,123.23Z"/><circle class="cls-2" cx="1174.82" cy="65.13" r="9.54"/></g></g></svg>